<?xml version="1.0" encoding="UTF-8"?>
<svg width="24px" height="26px" viewBox="0 0 24 26" version="1.1" xmlns="http://www.w3.org/2000/svg" xmlns:xlink="http://www.w3.org/1999/xlink">
    <title>Combined Shape</title>
    <g id="Page-2" stroke="none" stroke-width="1" fill="none" fill-rule="evenodd">
        <g id="Artboard-Copy-119" transform="translate(-365, -6018)" fill="#FFFFFF">
            <g id="Group-57" transform="translate(365, 5993)">
                <path d="M11.159,30.6558636 L11.5093611,31.4824435 L8.18218691,32.2636905 L4.00923372,33.2424404 L8.00524818,34.6975444 L10.6188094,35.6483558 L7.41973414,41.8940932 L5.14180443,46.341194 L9.17833928,43.5167833 L15.0313741,39.4199758 L16.2223464,41.3942254 L18.0902042,44.4896083 L18.4881299,40.8269525 L18.7972833,37.9766726 L19.596,38.1968636 L19.5964548,43.5 C19.5964548,47.6421356 16.2385904,51 12.0964548,51 L7.5,51 C3.35786438,51 9.0086655e-13,47.6421356 9.00612918e-13,43.5 L9.00612918e-13,38.1559279 C9.00105652e-13,34.0137923 3.35786438,30.6559279 7.5,30.6559279 L11.159,30.6558636 Z M18.2158515,25 L17.9384315,31.4073103 L24,30.1675633 L19.0016847,33.9372856 L23.7146645,38.0842417 L17.7592872,36.3776982 L17.3285353,40.7270169 L15.4502796,37.6280861 L8.60123764,42.4098749 L12.3840283,34.8886945 L8.44889172,33.415866 L13.2308738,32.3320097 L10.7178007,26.4728323 L15.3701791,30.6928953 L18.2158515,25 Z" id="Combined-Shape"></path>
            </g>
        </g>
    </g>
</svg>